<svg width="202" height="231" viewBox="0 0 202 231" fill="none" xmlns="http://www.w3.org/2000/svg">
<path d="M162.657 223.981C162.607 225.452 159.641 225.338 159.79 223.524L161.673 209.215C161.574 209.558 161.229 209.458 160.784 209.701L158.606 217.241C155.785 225.709 147.775 232.679 138.433 229.981C129.437 227.383 127.364 218.986 128.356 210.361C121.638 194.682 128.122 173.532 131.093 158.052C134.857 137.231 140.104 116.467 146.29 96.3453L147.577 91.8897C145.253 93.4466 142.583 94.9034 140.26 96.4602C127.058 104.53 114.203 112.7 101.842 121.755C82.8549 135.58 65.0032 154.561 49.3764 172.327C42.107 180.625 36.0235 190.007 27.8151 197.663C26.2822 199.077 24.2562 197.006 25.0971 195.392C29.4006 186.981 35.6812 179.511 41.8627 172.385C41.5167 172.285 41.1707 172.185 40.5777 171.643C32.2703 179.64 23.5179 187.881 13.6785 194.694C7.2509 198.779 1.76689 190.511 4.48761 184.984C4.68557 184.299 5.22949 183.713 5.42746 183.028C6.71699 170.775 13.7893 160.564 21.3557 151.238C38.6154 129.116 58.9389 109.364 80.3495 91.0402L78.9656 90.6406C57.1682 84.3453 27.7572 81.0498 10.0163 65.9004C-0.509565 56.9192 -4.35898 39.0979 6.47027 28.8577C33.1724 3.89286 77.4165 -2.63811 112.759 0.885278C132.68 3.29647 151.462 8.34962 170.046 16.6873C178.645 20.6563 189.37 26.3529 193.519 35.3491C195.001 38.005 195.939 41.2465 196.532 44.3881C201.226 50.1997 203.052 58.1536 201.072 65.0084C200.082 68.4358 194.05 73.7487 194.593 75.7621C194.74 79.1465 193.849 82.2312 194.095 85.2729C195.233 82.6309 196.768 76.019 201.167 77.6607C206.159 79.845 185.179 136.911 183.101 144.109C175.479 170.5 168.895 197.19 162.657 223.981ZM143.883 54.0617C144.872 53.2333 145.861 52.4049 147.097 52.0192C145.07 52.5478 133.801 47.4367 131.626 47.1799C125.398 45.3813 118.973 44.2681 112.448 43.4977C101.128 42.4565 88.9185 41.9009 77.598 43.4587C79.674 44.0582 81.3041 47.4996 82.5881 50.841C85.5013 60.2229 117.732 57.6489 127.171 65.2021C133.401 61.8027 137.999 57.561 143.883 54.0617Z" fill="#B12221"/>
</svg>
